<svg width="24" height="25" viewBox="0 0 24 25" fill="none" xmlns="http://www.w3.org/2000/svg">
<path d="M7.75 18.25H5.75C2.99 18.25 0.75 16.01 0.75 13.25C0.75 10.49 2.99 8.25 5.75 8.25C6.12 8.25 6.48 8.3 6.82 8.37C7.25 5.47 9.73 3.25 12.75 3.25C16.06 3.25 18.75 5.94 18.75 9.25C18.75 9.59 18.71 9.93 18.66 10.26C18.69 10.26 18.72 10.25 18.75 10.25C20.96 10.25 22.75 12.04 22.75 14.25C22.75 16.46 20.96 18.25 18.75 18.25H15.75" stroke="#151E29" stroke-width="1.5" stroke-miterlimit="10"/>
<path d="M11.76 22.2483V11.4883" stroke="#151E29" stroke-width="1.5" stroke-miterlimit="10"/>
<path d="M8.75 14.25L11.76 11.25L14.75 14.25" stroke="#151E29" stroke-width="1.5" stroke-miterlimit="10"/>
</svg>
