<svg width="20" height="21" viewBox="0 0 20 21" fill="none" xmlns="http://www.w3.org/2000/svg">
<path d="M7.14373 19.0126V15.9457C7.14372 15.1686 7.77567 14.5372 8.55844 14.5323H11.4326C12.2189 14.5323 12.8563 15.1651 12.8563 15.9457V19.0037C12.8562 19.6777 13.404 20.2256 14.0829 20.2304H16.0438C16.9596 20.2328 17.8388 19.8733 18.4872 19.2312C19.1356 18.5891 19.5 17.7172 19.5 16.808V8.09631C19.5 7.36186 19.1721 6.66518 18.6046 6.19397L11.943 0.904737C10.7785 -0.0204087 9.11537 0.00947696 7.98539 0.975853L1.46701 6.19397C0.872741 6.65129 0.517552 7.35003 0.5 8.09631V16.7991C0.5 18.6942 2.04738 20.2304 3.95617 20.2304H5.87229C6.19917 20.2328 6.51349 20.1055 6.74547 19.8769C6.97746 19.6482 7.10793 19.3371 7.10792 19.0126H7.14373Z" fill="white"/>
</svg>
